<svg xmlns="http://www.w3.org/2000/svg" viewBox="0 0 800 600" width="800" height="600"><rect width="800" height="600" fill="#FFFFFF"/><ellipse cx="400" cy="500" rx="200" ry="10" fill="#EDEDED"/><path d="M190 200 Q400 150 610 200 Q640 330 560 420 Q400 520 240 420 Q160 330 190 200 Z" fill="#1E1E1E"/><path d="M215 225 Q400 185 585 225 Q606 330 540 400 Q400 480 260 400 Q194 330 215 225 Z" fill="#343434"/><clipPath id="c"><path d="M215 225 Q400 185 585 225 Q606 330 540 400 Q400 480 260 400 Q194 330 215 225 Z"/></clipPath><g clip-path="url(#c)"><circle cx="218" cy="222" r="4.5" fill="#1A1A1A"/><circle cx="234" cy="222" r="4.5" fill="#1A1A1A"/><circle cx="250" cy="222" r="4.5" fill="#1A1A1A"/><circle cx="266" cy="222" r="4.5" fill="#1A1A1A"/><circle cx="282" cy="222" r="4.5" fill="#1A1A1A"/><circle cx="298" cy="222" r="4.5" fill="#1A1A1A"/><circle cx="314" cy="222" r="4.5" fill="#1A1A1A"/><circle cx="330" cy="222" r="4.5" fill="#1A1A1A"/><circle cx="346" cy="222" r="4.5" fill="#1A1A1A"/><circle cx="362" cy="222" r="4.5" fill="#1A1A1A"/><circle cx="378" cy="222" r="4.5" fill="#1A1A1A"/><circle cx="394" cy="222" r="4.5" fill="#1A1A1A"/><circle cx="410" cy="222" r="4.5" fill="#1A1A1A"/><circle cx="426" cy="222" r="4.5" fill="#1A1A1A"/><circle cx="442" cy="222" r="4.5" fill="#1A1A1A"/><circle cx="458" cy="222" r="4.5" fill="#1A1A1A"/><circle cx="474" cy="222" r="4.5" fill="#1A1A1A"/><circle cx="490" cy="222" r="4.5" fill="#1A1A1A"/><circle cx="506" cy="222" r="4.5" fill="#1A1A1A"/><circle cx="522" cy="222" r="4.5" fill="#1A1A1A"/><circle cx="538" cy="222" r="4.5" fill="#1A1A1A"/><circle cx="554" cy="222" r="4.5" fill="#1A1A1A"/><circle cx="570" cy="222" r="4.5" fill="#1A1A1A"/><circle cx="586" cy="222" r="4.5" fill="#1A1A1A"/><circle cx="602" cy="222" r="4.5" fill="#1A1A1A"/><circle cx="210" cy="238" r="4.5" fill="#1A1A1A"/><circle cx="226" cy="238" r="4.5" fill="#1A1A1A"/><circle cx="242" cy="238" r="4.5" fill="#1A1A1A"/><circle cx="258" cy="238" r="4.5" fill="#1A1A1A"/><circle cx="274" cy="238" r="4.5" fill="#1A1A1A"/><circle cx="290" cy="238" r="4.5" fill="#1A1A1A"/><circle cx="306" cy="238" r="4.5" fill="#1A1A1A"/><circle cx="322" cy="238" r="4.5" fill="#1A1A1A"/><circle cx="338" cy="238" r="4.5" fill="#1A1A1A"/><circle cx="354" cy="238" r="4.5" fill="#1A1A1A"/><circle cx="370" cy="238" r="4.5" fill="#1A1A1A"/><circle cx="386" cy="238" r="4.5" fill="#1A1A1A"/><circle cx="402" cy="238" r="4.5" fill="#1A1A1A"/><circle cx="418" cy="238" r="4.5" fill="#1A1A1A"/><circle cx="434" cy="238" r="4.5" fill="#1A1A1A"/><circle cx="450" cy="238" r="4.5" fill="#1A1A1A"/><circle cx="466" cy="238" r="4.5" fill="#1A1A1A"/><circle cx="482" cy="238" r="4.5" fill="#1A1A1A"/><circle cx="498" cy="238" r="4.5" fill="#1A1A1A"/><circle cx="514" cy="238" r="4.5" fill="#1A1A1A"/><circle cx="530" cy="238" r="4.5" fill="#1A1A1A"/><circle cx="546" cy="238" r="4.5" fill="#1A1A1A"/><circle cx="562" cy="238" r="4.5" fill="#1A1A1A"/><circle cx="578" cy="238" r="4.5" fill="#1A1A1A"/><circle cx="594" cy="238" r="4.5" fill="#1A1A1A"/><circle cx="218" cy="254" r="4.5" fill="#1A1A1A"/><circle cx="234" cy="254" r="4.5" fill="#1A1A1A"/><circle cx="250" cy="254" r="4.5" fill="#1A1A1A"/><circle cx="266" cy="254" r="4.5" fill="#1A1A1A"/><circle cx="282" cy="254" r="4.5" fill="#1A1A1A"/><circle cx="298" cy="254" r="4.5" fill="#1A1A1A"/><circle cx="314" cy="254" r="4.5" fill="#1A1A1A"/><circle cx="330" cy="254" r="4.5" fill="#1A1A1A"/><circle cx="346" cy="254" r="4.5" fill="#1A1A1A"/><circle cx="362" cy="254" r="4.5" fill="#1A1A1A"/><circle cx="378" cy="254" r="4.5" fill="#1A1A1A"/><circle cx="394" cy="254" r="4.5" fill="#1A1A1A"/><circle cx="410" cy="254" r="4.5" fill="#1A1A1A"/><circle cx="426" cy="254" r="4.5" fill="#1A1A1A"/><circle cx="442" cy="254" r="4.5" fill="#1A1A1A"/><circle cx="458" cy="254" r="4.5" fill="#1A1A1A"/><circle cx="474" cy="254" r="4.5" fill="#1A1A1A"/><circle cx="490" cy="254" r="4.5" fill="#1A1A1A"/><circle cx="506" cy="254" r="4.5" fill="#1A1A1A"/><circle cx="522" cy="254" r="4.5" fill="#1A1A1A"/><circle cx="538" cy="254" r="4.5" fill="#1A1A1A"/><circle cx="554" cy="254" r="4.5" fill="#1A1A1A"/><circle cx="570" cy="254" r="4.5" fill="#1A1A1A"/><circle cx="586" cy="254" r="4.5" fill="#1A1A1A"/><circle cx="602" cy="254" r="4.5" fill="#1A1A1A"/><circle cx="210" cy="270" r="4.5" fill="#1A1A1A"/><circle cx="226" cy="270" r="4.5" fill="#1A1A1A"/><circle cx="242" cy="270" r="4.5" fill="#1A1A1A"/><circle cx="258" cy="270" r="4.5" fill="#1A1A1A"/><circle cx="274" cy="270" r="4.5" fill="#1A1A1A"/><circle cx="290" cy="270" r="4.5" fill="#1A1A1A"/><circle cx="306" cy="270" r="4.5" fill="#1A1A1A"/><circle cx="322" cy="270" r="4.5" fill="#1A1A1A"/><circle cx="338" cy="270" r="4.5" fill="#1A1A1A"/><circle cx="354" cy="270" r="4.5" fill="#1A1A1A"/><circle cx="370" cy="270" r="4.5" fill="#1A1A1A"/><circle cx="386" cy="270" r="4.5" fill="#1A1A1A"/><circle cx="402" cy="270" r="4.5" fill="#1A1A1A"/><circle cx="418" cy="270" r="4.5" fill="#1A1A1A"/><circle cx="434" cy="270" r="4.5" fill="#1A1A1A"/><circle cx="450" cy="270" r="4.5" fill="#1A1A1A"/><circle cx="466" cy="270" r="4.5" fill="#1A1A1A"/><circle cx="482" cy="270" r="4.5" fill="#1A1A1A"/><circle cx="498" cy="270" r="4.5" fill="#1A1A1A"/><circle cx="514" cy="270" r="4.5" fill="#1A1A1A"/><circle cx="530" cy="270" r="4.5" fill="#1A1A1A"/><circle cx="546" cy="270" r="4.5" fill="#1A1A1A"/><circle cx="562" cy="270" r="4.5" fill="#1A1A1A"/><circle cx="578" cy="270" r="4.5" fill="#1A1A1A"/><circle cx="594" cy="270" r="4.5" fill="#1A1A1A"/><circle cx="218" cy="286" r="4.5" fill="#1A1A1A"/><circle cx="234" cy="286" r="4.5" fill="#1A1A1A"/><circle cx="250" cy="286" r="4.5" fill="#1A1A1A"/><circle cx="266" cy="286" r="4.5" fill="#1A1A1A"/><circle cx="282" cy="286" r="4.5" fill="#1A1A1A"/><circle cx="298" cy="286" r="4.5" fill="#1A1A1A"/><circle cx="314" cy="286" r="4.5" fill="#1A1A1A"/><circle cx="330" cy="286" r="4.5" fill="#1A1A1A"/><circle cx="346" cy="286" r="4.5" fill="#1A1A1A"/><circle cx="362" cy="286" r="4.5" fill="#1A1A1A"/><circle cx="378" cy="286" r="4.5" fill="#1A1A1A"/><circle cx="394" cy="286" r="4.5" fill="#1A1A1A"/><circle cx="410" cy="286" r="4.5" fill="#1A1A1A"/><circle cx="426" cy="286" r="4.5" fill="#1A1A1A"/><circle cx="442" cy="286" r="4.5" fill="#1A1A1A"/><circle cx="458" cy="286" r="4.5" fill="#1A1A1A"/><circle cx="474" cy="286" r="4.5" fill="#1A1A1A"/><circle cx="490" cy="286" r="4.5" fill="#1A1A1A"/><circle cx="506" cy="286" r="4.5" fill="#1A1A1A"/><circle cx="522" cy="286" r="4.5" fill="#1A1A1A"/><circle cx="538" cy="286" r="4.5" fill="#1A1A1A"/><circle cx="554" cy="286" r="4.5" fill="#1A1A1A"/><circle cx="570" cy="286" r="4.5" fill="#1A1A1A"/><circle cx="586" cy="286" r="4.5" fill="#1A1A1A"/><circle cx="602" cy="286" r="4.5" fill="#1A1A1A"/><circle cx="210" cy="302" r="4.5" fill="#1A1A1A"/><circle cx="226" cy="302" r="4.5" fill="#1A1A1A"/><circle cx="242" cy="302" r="4.5" fill="#1A1A1A"/><circle cx="258" cy="302" r="4.5" fill="#1A1A1A"/><circle cx="274" cy="302" r="4.5" fill="#1A1A1A"/><circle cx="290" cy="302" r="4.5" fill="#1A1A1A"/><circle cx="306" cy="302" r="4.5" fill="#1A1A1A"/><circle cx="322" cy="302" r="4.5" fill="#1A1A1A"/><circle cx="338" cy="302" r="4.5" fill="#1A1A1A"/><circle cx="354" cy="302" r="4.5" fill="#1A1A1A"/><circle cx="370" cy="302" r="4.5" fill="#1A1A1A"/><circle cx="386" cy="302" r="4.5" fill="#1A1A1A"/><circle cx="402" cy="302" r="4.5" fill="#1A1A1A"/><circle cx="418" cy="302" r="4.5" fill="#1A1A1A"/><circle cx="434" cy="302" r="4.5" fill="#1A1A1A"/><circle cx="450" cy="302" r="4.5" fill="#1A1A1A"/><circle cx="466" cy="302" r="4.5" fill="#1A1A1A"/><circle cx="482" cy="302" r="4.5" fill="#1A1A1A"/><circle cx="498" cy="302" r="4.5" fill="#1A1A1A"/><circle cx="514" cy="302" r="4.5" fill="#1A1A1A"/><circle cx="530" cy="302" r="4.5" fill="#1A1A1A"/><circle cx="546" cy="302" r="4.5" fill="#1A1A1A"/><circle cx="562" cy="302" r="4.5" fill="#1A1A1A"/><circle cx="578" cy="302" r="4.5" fill="#1A1A1A"/><circle cx="594" cy="302" r="4.5" fill="#1A1A1A"/><circle cx="218" cy="318" r="4.5" fill="#1A1A1A"/><circle cx="234" cy="318" r="4.5" fill="#1A1A1A"/><circle cx="250" cy="318" r="4.5" fill="#1A1A1A"/><circle cx="266" cy="318" r="4.5" fill="#1A1A1A"/><circle cx="282" cy="318" r="4.5" fill="#1A1A1A"/><circle cx="298" cy="318" r="4.5" fill="#1A1A1A"/><circle cx="314" cy="318" r="4.5" fill="#1A1A1A"/><circle cx="330" cy="318" r="4.5" fill="#1A1A1A"/><circle cx="346" cy="318" r="4.5" fill="#1A1A1A"/><circle cx="362" cy="318" r="4.5" fill="#1A1A1A"/><circle cx="378" cy="318" r="4.5" fill="#1A1A1A"/><circle cx="394" cy="318" r="4.5" fill="#1A1A1A"/><circle cx="410" cy="318" r="4.5" fill="#1A1A1A"/><circle cx="426" cy="318" r="4.5" fill="#1A1A1A"/><circle cx="442" cy="318" r="4.5" fill="#1A1A1A"/><circle cx="458" cy="318" r="4.5" fill="#1A1A1A"/><circle cx="474" cy="318" r="4.5" fill="#1A1A1A"/><circle cx="490" cy="318" r="4.5" fill="#1A1A1A"/><circle cx="506" cy="318" r="4.5" fill="#1A1A1A"/><circle cx="522" cy="318" r="4.5" fill="#1A1A1A"/><circle cx="538" cy="318" r="4.5" fill="#1A1A1A"/><circle cx="554" cy="318" r="4.5" fill="#1A1A1A"/><circle cx="570" cy="318" r="4.5" fill="#1A1A1A"/><circle cx="586" cy="318" r="4.5" fill="#1A1A1A"/><circle cx="602" cy="318" r="4.5" fill="#1A1A1A"/><circle cx="210" cy="334" r="4.5" fill="#1A1A1A"/><circle cx="226" cy="334" r="4.5" fill="#1A1A1A"/><circle cx="242" cy="334" r="4.5" fill="#1A1A1A"/><circle cx="258" cy="334" r="4.5" fill="#1A1A1A"/><circle cx="274" cy="334" r="4.5" fill="#1A1A1A"/><circle cx="290" cy="334" r="4.5" fill="#1A1A1A"/><circle cx="306" cy="334" r="4.5" fill="#1A1A1A"/><circle cx="322" cy="334" r="4.5" fill="#1A1A1A"/><circle cx="338" cy="334" r="4.5" fill="#1A1A1A"/><circle cx="354" cy="334" r="4.5" fill="#1A1A1A"/><circle cx="370" cy="334" r="4.5" fill="#1A1A1A"/><circle cx="386" cy="334" r="4.5" fill="#1A1A1A"/><circle cx="402" cy="334" r="4.5" fill="#1A1A1A"/><circle cx="418" cy="334" r="4.5" fill="#1A1A1A"/><circle cx="434" cy="334" r="4.5" fill="#1A1A1A"/><circle cx="450" cy="334" r="4.5" fill="#1A1A1A"/><circle cx="466" cy="334" r="4.5" fill="#1A1A1A"/><circle cx="482" cy="334" r="4.5" fill="#1A1A1A"/><circle cx="498" cy="334" r="4.5" fill="#1A1A1A"/><circle cx="514" cy="334" r="4.5" fill="#1A1A1A"/><circle cx="530" cy="334" r="4.5" fill="#1A1A1A"/><circle cx="546" cy="334" r="4.5" fill="#1A1A1A"/><circle cx="562" cy="334" r="4.5" fill="#1A1A1A"/><circle cx="578" cy="334" r="4.5" fill="#1A1A1A"/><circle cx="594" cy="334" r="4.5" fill="#1A1A1A"/><circle cx="218" cy="350" r="4.5" fill="#1A1A1A"/><circle cx="234" cy="350" r="4.5" fill="#1A1A1A"/><circle cx="250" cy="350" r="4.5" fill="#1A1A1A"/><circle cx="266" cy="350" r="4.5" fill="#1A1A1A"/><circle cx="282" cy="350" r="4.5" fill="#1A1A1A"/><circle cx="298" cy="350" r="4.5" fill="#1A1A1A"/><circle cx="314" cy="350" r="4.5" fill="#1A1A1A"/><circle cx="330" cy="350" r="4.5" fill="#1A1A1A"/><circle cx="346" cy="350" r="4.5" fill="#1A1A1A"/><circle cx="362" cy="350" r="4.5" fill="#1A1A1A"/><circle cx="378" cy="350" r="4.5" fill="#1A1A1A"/><circle cx="394" cy="350" r="4.5" fill="#1A1A1A"/><circle cx="410" cy="350" r="4.5" fill="#1A1A1A"/><circle cx="426" cy="350" r="4.5" fill="#1A1A1A"/><circle cx="442" cy="350" r="4.5" fill="#1A1A1A"/><circle cx="458" cy="350" r="4.5" fill="#1A1A1A"/><circle cx="474" cy="350" r="4.5" fill="#1A1A1A"/><circle cx="490" cy="350" r="4.5" fill="#1A1A1A"/><circle cx="506" cy="350" r="4.5" fill="#1A1A1A"/><circle cx="522" cy="350" r="4.5" fill="#1A1A1A"/><circle cx="538" cy="350" r="4.5" fill="#1A1A1A"/><circle cx="554" cy="350" r="4.5" fill="#1A1A1A"/><circle cx="570" cy="350" r="4.5" fill="#1A1A1A"/><circle cx="586" cy="350" r="4.5" fill="#1A1A1A"/><circle cx="602" cy="350" r="4.5" fill="#1A1A1A"/><circle cx="210" cy="366" r="4.5" fill="#1A1A1A"/><circle cx="226" cy="366" r="4.5" fill="#1A1A1A"/><circle cx="242" cy="366" r="4.5" fill="#1A1A1A"/><circle cx="258" cy="366" r="4.5" fill="#1A1A1A"/><circle cx="274" cy="366" r="4.5" fill="#1A1A1A"/><circle cx="290" cy="366" r="4.5" fill="#1A1A1A"/><circle cx="306" cy="366" r="4.5" fill="#1A1A1A"/><circle cx="322" cy="366" r="4.5" fill="#1A1A1A"/><circle cx="338" cy="366" r="4.5" fill="#1A1A1A"/><circle cx="354" cy="366" r="4.5" fill="#1A1A1A"/><circle cx="370" cy="366" r="4.5" fill="#1A1A1A"/><circle cx="386" cy="366" r="4.5" fill="#1A1A1A"/><circle cx="402" cy="366" r="4.5" fill="#1A1A1A"/><circle cx="418" cy="366" r="4.5" fill="#1A1A1A"/><circle cx="434" cy="366" r="4.5" fill="#1A1A1A"/><circle cx="450" cy="366" r="4.5" fill="#1A1A1A"/><circle cx="466" cy="366" r="4.5" fill="#1A1A1A"/><circle cx="482" cy="366" r="4.5" fill="#1A1A1A"/><circle cx="498" cy="366" r="4.5" fill="#1A1A1A"/><circle cx="514" cy="366" r="4.5" fill="#1A1A1A"/><circle cx="530" cy="366" r="4.5" fill="#1A1A1A"/><circle cx="546" cy="366" r="4.5" fill="#1A1A1A"/><circle cx="562" cy="366" r="4.5" fill="#1A1A1A"/><circle cx="578" cy="366" r="4.5" fill="#1A1A1A"/><circle cx="594" cy="366" r="4.5" fill="#1A1A1A"/><circle cx="218" cy="382" r="4.5" fill="#1A1A1A"/><circle cx="234" cy="382" r="4.5" fill="#1A1A1A"/><circle cx="250" cy="382" r="4.5" fill="#1A1A1A"/><circle cx="266" cy="382" r="4.5" fill="#1A1A1A"/><circle cx="282" cy="382" r="4.5" fill="#1A1A1A"/><circle cx="298" cy="382" r="4.5" fill="#1A1A1A"/><circle cx="314" cy="382" r="4.5" fill="#1A1A1A"/><circle cx="330" cy="382" r="4.5" fill="#1A1A1A"/><circle cx="346" cy="382" r="4.5" fill="#1A1A1A"/><circle cx="362" cy="382" r="4.5" fill="#1A1A1A"/><circle cx="378" cy="382" r="4.5" fill="#1A1A1A"/><circle cx="394" cy="382" r="4.5" fill="#1A1A1A"/><circle cx="410" cy="382" r="4.5" fill="#1A1A1A"/><circle cx="426" cy="382" r="4.5" fill="#1A1A1A"/><circle cx="442" cy="382" r="4.5" fill="#1A1A1A"/><circle cx="458" cy="382" r="4.5" fill="#1A1A1A"/><circle cx="474" cy="382" r="4.5" fill="#1A1A1A"/><circle cx="490" cy="382" r="4.5" fill="#1A1A1A"/><circle cx="506" cy="382" r="4.5" fill="#1A1A1A"/><circle cx="522" cy="382" r="4.5" fill="#1A1A1A"/><circle cx="538" cy="382" r="4.5" fill="#1A1A1A"/><circle cx="554" cy="382" r="4.5" fill="#1A1A1A"/><circle cx="570" cy="382" r="4.5" fill="#1A1A1A"/><circle cx="586" cy="382" r="4.5" fill="#1A1A1A"/><circle cx="602" cy="382" r="4.5" fill="#1A1A1A"/><circle cx="210" cy="398" r="4.5" fill="#1A1A1A"/><circle cx="226" cy="398" r="4.5" fill="#1A1A1A"/><circle cx="242" cy="398" r="4.5" fill="#1A1A1A"/><circle cx="258" cy="398" r="4.5" fill="#1A1A1A"/><circle cx="274" cy="398" r="4.5" fill="#1A1A1A"/><circle cx="290" cy="398" r="4.5" fill="#1A1A1A"/><circle cx="306" cy="398" r="4.5" fill="#1A1A1A"/><circle cx="322" cy="398" r="4.5" fill="#1A1A1A"/><circle cx="338" cy="398" r="4.5" fill="#1A1A1A"/><circle cx="354" cy="398" r="4.5" fill="#1A1A1A"/><circle cx="370" cy="398" r="4.5" fill="#1A1A1A"/><circle cx="386" cy="398" r="4.5" fill="#1A1A1A"/><circle cx="402" cy="398" r="4.5" fill="#1A1A1A"/><circle cx="418" cy="398" r="4.5" fill="#1A1A1A"/><circle cx="434" cy="398" r="4.5" fill="#1A1A1A"/><circle cx="450" cy="398" r="4.5" fill="#1A1A1A"/><circle cx="466" cy="398" r="4.5" fill="#1A1A1A"/><circle cx="482" cy="398" r="4.5" fill="#1A1A1A"/><circle cx="498" cy="398" r="4.5" fill="#1A1A1A"/><circle cx="514" cy="398" r="4.5" fill="#1A1A1A"/><circle cx="530" cy="398" r="4.5" fill="#1A1A1A"/><circle cx="546" cy="398" r="4.5" fill="#1A1A1A"/><circle cx="562" cy="398" r="4.5" fill="#1A1A1A"/><circle cx="578" cy="398" r="4.5" fill="#1A1A1A"/><circle cx="594" cy="398" r="4.5" fill="#1A1A1A"/><circle cx="218" cy="414" r="4.5" fill="#1A1A1A"/><circle cx="234" cy="414" r="4.5" fill="#1A1A1A"/><circle cx="250" cy="414" r="4.5" fill="#1A1A1A"/><circle cx="266" cy="414" r="4.5" fill="#1A1A1A"/><circle cx="282" cy="414" r="4.5" fill="#1A1A1A"/><circle cx="298" cy="414" r="4.5" fill="#1A1A1A"/><circle cx="314" cy="414" r="4.5" fill="#1A1A1A"/><circle cx="330" cy="414" r="4.5" fill="#1A1A1A"/><circle cx="346" cy="414" r="4.5" fill="#1A1A1A"/><circle cx="362" cy="414" r="4.5" fill="#1A1A1A"/><circle cx="378" cy="414" r="4.5" fill="#1A1A1A"/><circle cx="394" cy="414" r="4.5" fill="#1A1A1A"/><circle cx="410" cy="414" r="4.5" fill="#1A1A1A"/><circle cx="426" cy="414" r="4.5" fill="#1A1A1A"/><circle cx="442" cy="414" r="4.5" fill="#1A1A1A"/><circle cx="458" cy="414" r="4.5" fill="#1A1A1A"/><circle cx="474" cy="414" r="4.5" fill="#1A1A1A"/><circle cx="490" cy="414" r="4.5" fill="#1A1A1A"/><circle cx="506" cy="414" r="4.5" fill="#1A1A1A"/><circle cx="522" cy="414" r="4.5" fill="#1A1A1A"/><circle cx="538" cy="414" r="4.5" fill="#1A1A1A"/><circle cx="554" cy="414" r="4.5" fill="#1A1A1A"/><circle cx="570" cy="414" r="4.5" fill="#1A1A1A"/><circle cx="586" cy="414" r="4.5" fill="#1A1A1A"/><circle cx="602" cy="414" r="4.5" fill="#1A1A1A"/><circle cx="210" cy="430" r="4.5" fill="#1A1A1A"/><circle cx="226" cy="430" r="4.5" fill="#1A1A1A"/><circle cx="242" cy="430" r="4.5" fill="#1A1A1A"/><circle cx="258" cy="430" r="4.5" fill="#1A1A1A"/><circle cx="274" cy="430" r="4.5" fill="#1A1A1A"/><circle cx="290" cy="430" r="4.5" fill="#1A1A1A"/><circle cx="306" cy="430" r="4.5" fill="#1A1A1A"/><circle cx="322" cy="430" r="4.5" fill="#1A1A1A"/><circle cx="338" cy="430" r="4.5" fill="#1A1A1A"/><circle cx="354" cy="430" r="4.5" fill="#1A1A1A"/><circle cx="370" cy="430" r="4.5" fill="#1A1A1A"/><circle cx="386" cy="430" r="4.5" fill="#1A1A1A"/><circle cx="402" cy="430" r="4.5" fill="#1A1A1A"/><circle cx="418" cy="430" r="4.5" fill="#1A1A1A"/><circle cx="434" cy="430" r="4.5" fill="#1A1A1A"/><circle cx="450" cy="430" r="4.5" fill="#1A1A1A"/><circle cx="466" cy="430" r="4.5" fill="#1A1A1A"/><circle cx="482" cy="430" r="4.5" fill="#1A1A1A"/><circle cx="498" cy="430" r="4.5" fill="#1A1A1A"/><circle cx="514" cy="430" r="4.5" fill="#1A1A1A"/><circle cx="530" cy="430" r="4.5" fill="#1A1A1A"/><circle cx="546" cy="430" r="4.5" fill="#1A1A1A"/><circle cx="562" cy="430" r="4.5" fill="#1A1A1A"/><circle cx="578" cy="430" r="4.5" fill="#1A1A1A"/><circle cx="594" cy="430" r="4.5" fill="#1A1A1A"/><circle cx="218" cy="446" r="4.5" fill="#1A1A1A"/><circle cx="234" cy="446" r="4.5" fill="#1A1A1A"/><circle cx="250" cy="446" r="4.5" fill="#1A1A1A"/><circle cx="266" cy="446" r="4.5" fill="#1A1A1A"/><circle cx="282" cy="446" r="4.5" fill="#1A1A1A"/><circle cx="298" cy="446" r="4.5" fill="#1A1A1A"/><circle cx="314" cy="446" r="4.5" fill="#1A1A1A"/><circle cx="330" cy="446" r="4.5" fill="#1A1A1A"/><circle cx="346" cy="446" r="4.5" fill="#1A1A1A"/><circle cx="362" cy="446" r="4.5" fill="#1A1A1A"/><circle cx="378" cy="446" r="4.5" fill="#1A1A1A"/><circle cx="394" cy="446" r="4.5" fill="#1A1A1A"/><circle cx="410" cy="446" r="4.5" fill="#1A1A1A"/><circle cx="426" cy="446" r="4.5" fill="#1A1A1A"/><circle cx="442" cy="446" r="4.5" fill="#1A1A1A"/><circle cx="458" cy="446" r="4.5" fill="#1A1A1A"/><circle cx="474" cy="446" r="4.5" fill="#1A1A1A"/><circle cx="490" cy="446" r="4.5" fill="#1A1A1A"/><circle cx="506" cy="446" r="4.5" fill="#1A1A1A"/><circle cx="522" cy="446" r="4.5" fill="#1A1A1A"/><circle cx="538" cy="446" r="4.5" fill="#1A1A1A"/><circle cx="554" cy="446" r="4.5" fill="#1A1A1A"/><circle cx="570" cy="446" r="4.5" fill="#1A1A1A"/><circle cx="586" cy="446" r="4.5" fill="#1A1A1A"/><circle cx="602" cy="446" r="4.5" fill="#1A1A1A"/><circle cx="210" cy="462" r="4.5" fill="#1A1A1A"/><circle cx="226" cy="462" r="4.5" fill="#1A1A1A"/><circle cx="242" cy="462" r="4.5" fill="#1A1A1A"/><circle cx="258" cy="462" r="4.5" fill="#1A1A1A"/><circle cx="274" cy="462" r="4.5" fill="#1A1A1A"/><circle cx="290" cy="462" r="4.5" fill="#1A1A1A"/><circle cx="306" cy="462" r="4.5" fill="#1A1A1A"/><circle cx="322" cy="462" r="4.5" fill="#1A1A1A"/><circle cx="338" cy="462" r="4.5" fill="#1A1A1A"/><circle cx="354" cy="462" r="4.5" fill="#1A1A1A"/><circle cx="370" cy="462" r="4.5" fill="#1A1A1A"/><circle cx="386" cy="462" r="4.5" fill="#1A1A1A"/><circle cx="402" cy="462" r="4.5" fill="#1A1A1A"/><circle cx="418" cy="462" r="4.5" fill="#1A1A1A"/><circle cx="434" cy="462" r="4.5" fill="#1A1A1A"/><circle cx="450" cy="462" r="4.5" fill="#1A1A1A"/><circle cx="466" cy="462" r="4.5" fill="#1A1A1A"/><circle cx="482" cy="462" r="4.5" fill="#1A1A1A"/><circle cx="498" cy="462" r="4.5" fill="#1A1A1A"/><circle cx="514" cy="462" r="4.5" fill="#1A1A1A"/><circle cx="530" cy="462" r="4.5" fill="#1A1A1A"/><circle cx="546" cy="462" r="4.5" fill="#1A1A1A"/><circle cx="562" cy="462" r="4.5" fill="#1A1A1A"/><circle cx="578" cy="462" r="4.5" fill="#1A1A1A"/><circle cx="594" cy="462" r="4.5" fill="#1A1A1A"/></g><rect x="120" y="250" width="80" height="24" rx="8" fill="#D71920"/><rect x="600" y="250" width="80" height="24" rx="8" fill="#D71920"/></svg>